<?xml version="1.0" standalone="no"?>
<svg viewBox="0 0 200 200" xmlns="http://www.w3.org/2000/svg">
  <path fill="#0DBBFF" d="M40.1,-70.1C53.5,-61.8,66.8,-54,74.8,-42.4C82.7,-30.8,85.3,-15.4,84.6,-0.4C83.9,14.6,79.8,29.2,73.5,43.6C67.2,57.9,58.5,72.1,45.8,78.7C33.2,85.3,16.6,84.4,1.7,81.4C-13.2,78.5,-26.4,73.5,-40.6,67.8C-54.9,62.1,-70.2,55.8,-78.1,44.4C-86,32.9,-86.5,16.5,-86,0.3C-85.5,-15.9,-84,-31.7,-77.5,-45.6C-70.9,-59.4,-59.4,-71.1,-45.6,-79.1C-31.9,-87.2,-15.9,-91.5,-1.3,-89.3C13.4,-87.1,26.8,-78.3,40.1,-70.1Z" transform="translate(100 100)" />
</svg>
